<svg width="211" height="62" viewBox="0 0 211 62" fill="none" xmlns="http://www.w3.org/2000/svg">
      <path d="M74 55H77.4V37H74V55ZM81.1475 55H84.5975V43L92.4225 55H95.8725V37H92.4225V49L84.5975 37H81.1475V55ZM99.3604 55H105.185C105.327 55 105.619 54.9958 106.06 54.9875C106.502 54.9792 106.927 54.95 107.335 54.9C108.785 54.725 110.015 54.2208 111.023 53.3875C112.031 52.5542 112.798 51.4958 113.323 50.2125C113.848 48.9292 114.11 47.525 114.11 46C114.11 44.475 113.848 43.0708 113.323 41.7875C112.798 40.5042 112.031 39.4458 111.023 38.6125C110.015 37.7792 108.785 37.275 107.335 37.1C106.927 37.05 106.502 37.0208 106.06 37.0125C105.619 37.0042 105.327 37 105.185 37H99.3604V55ZM102.81 51.8V40.2H105.185C105.41 40.2 105.715 40.2042 106.098 40.2125C106.481 40.2208 106.827 40.2583 107.135 40.325C107.894 40.475 108.523 40.8292 109.023 41.3875C109.523 41.9458 109.894 42.6292 110.135 43.4375C110.385 44.2458 110.51 45.1 110.51 46C110.51 46.8583 110.39 47.6917 110.148 48.5C109.915 49.3083 109.548 50 109.048 50.575C108.556 51.15 107.919 51.5167 107.135 51.675C106.827 51.7333 106.481 51.7708 106.098 51.7875C105.715 51.7958 105.41 51.8 105.185 51.8H102.81ZM117.109 55H128.859V51.825H120.509V47.2H127.359V44.025H120.509V40.175H128.859V37H117.109V55ZM138.946 55.375C141.012 55.375 142.746 54.8625 144.146 53.8375C145.554 52.8125 146.546 51.425 147.121 49.675L143.696 48.725C143.362 49.8083 142.8 50.6542 142.008 51.2625C141.217 51.8708 140.196 52.175 138.946 52.175C137.237 52.175 135.95 51.6167 135.083 50.5C134.225 49.375 133.796 47.875 133.796 46C133.796 44.125 134.225 42.6292 135.083 41.5125C135.95 40.3875 137.237 39.825 138.946 39.825C140.196 39.825 141.217 40.1292 142.008 40.7375C142.8 41.3375 143.362 42.1833 143.696 43.275L147.121 42.325C146.546 40.575 145.554 39.1875 144.146 38.1625C142.746 37.1375 141.012 36.625 138.946 36.625C137.146 36.625 135.592 37.0167 134.283 37.8C132.983 38.5833 131.979 39.6792 131.271 41.0875C130.571 42.4958 130.221 44.1333 130.221 46C130.221 47.8667 130.571 49.5042 131.271 50.9125C131.979 52.3208 132.983 53.4167 134.283 54.2C135.592 54.9833 137.146 55.375 138.946 55.375ZM150.123 55H153.523V37H150.123V55ZM164.071 55.375C164.987 55.375 165.875 55.2583 166.733 55.025C167.6 54.7917 168.375 54.4417 169.058 53.975C169.741 53.5 170.283 52.9042 170.683 52.1875C171.091 51.4625 171.296 50.6167 171.296 49.65C171.296 48.7417 171.125 47.9917 170.783 47.4C170.45 46.8083 170.021 46.3333 169.496 45.975C168.979 45.6083 168.437 45.325 167.871 45.125C167.304 44.9167 166.787 44.75 166.321 44.625L163.196 43.775C162.812 43.675 162.437 43.55 162.071 43.4C161.704 43.25 161.4 43.0542 161.158 42.8125C160.916 42.5625 160.796 42.2417 160.796 41.85C160.796 41.425 160.941 41.0583 161.233 40.75C161.533 40.4417 161.916 40.2083 162.383 40.05C162.858 39.8833 163.362 39.8083 163.896 39.825C164.712 39.85 165.462 40.0917 166.146 40.55C166.829 41.0083 167.271 41.675 167.471 42.55L171.146 41.925C170.712 40.2333 169.871 38.9375 168.621 38.0375C167.371 37.1375 165.812 36.675 163.946 36.65C162.712 36.6417 161.587 36.8333 160.571 37.225C159.554 37.6167 158.741 38.2125 158.133 39.0125C157.525 39.8125 157.221 40.8167 157.221 42.025C157.221 42.8833 157.362 43.5958 157.646 44.1625C157.937 44.7208 158.3 45.1708 158.733 45.5125C159.166 45.8542 159.612 46.1167 160.071 46.3C160.537 46.4833 160.946 46.625 161.296 46.725L165.971 48.1C166.671 48.3083 167.137 48.5708 167.371 48.8875C167.604 49.1958 167.721 49.5333 167.721 49.9C167.721 50.4 167.55 50.8208 167.208 51.1625C166.875 51.5042 166.446 51.7625 165.921 51.9375C165.396 52.1125 164.854 52.2 164.296 52.2C163.296 52.2 162.404 51.9208 161.621 51.3625C160.837 50.8042 160.321 50.0083 160.071 48.975L156.521 49.5C156.704 50.7167 157.137 51.7667 157.821 52.65C158.512 53.525 159.391 54.2 160.458 54.675C161.533 55.1417 162.737 55.375 164.071 55.375ZM174.293 55H177.693V37H174.293V55ZM185.315 55H190.39L195.89 37H192.39L187.815 51.8L183.315 37H179.815L185.315 55ZM197.773 55H209.523V51.825H201.173V47.2H208.023V44.025H201.173V40.175H209.523V37H197.773V55Z" fill="black"/>
      <ellipse cx="33" cy="48" rx="33" ry="14" fill="black"/>
      <ellipse cx="33" cy="14" rx="33" ry="14" fill="black"/>
      <rect y="34" width="66" height="17" rx="5" fill="black"/>
      <rect y="11" width="66" height="17" rx="5" fill="black"/>
      <path d="M157.707 19.7078C158.098 19.3173 158.098 18.6842 157.707 18.2936L151.343 11.9296C150.953 11.5391 150.319 11.5391 149.929 11.9296C149.538 12.3202 149.538 12.9533 149.929 13.3438L155.586 19.0007L149.929 24.6576C149.538 25.0481 149.538 25.6812 149.929 26.0718C150.319 26.4623 150.953 26.4623 151.343 26.0718L157.707 19.7078ZM7 20L157 20.0007L157 18.0007L7 18L7 20Z" fill="black"/>
      </svg>